<svg xmlns="http://www.w3.org/2000/svg" enable-background="new 0 0 24 24" viewBox="0 0 24 24" id="markdown">
  <path fill="#6766DB" d="M17.149,16.155l-3.317-3.828c-0.281-0.324-0.049-0.827,0.378-0.827h1.712V8.28c0-0.276,0.224-0.5,0.5-0.5h2.212c0.276,0,0.5,0.224,0.5,0.5v3.22h1.711c0.427,0,0.658,0.504,0.378,0.827l-3.317,3.828C17.707,16.386,17.347,16.386,17.149,16.155z"></path>
  <path fill="#110638" d="M21.842,19.5H2.158C0.968,19.5,0,18.54,0,17.359V6.641C0,5.46,0.968,4.5,2.158,4.5h19.684C23.032,4.5,24,5.46,24,6.641v10.719C24,18.54,23.032,19.5,21.842,19.5z M2.158,5.5C1.52,5.5,1,6.012,1,6.641v10.719C1,17.988,1.52,18.5,2.158,18.5h19.684C22.48,18.5,23,17.988,23,17.359V6.641C23,6.012,22.48,5.5,21.842,5.5H2.158z"></path>
  <path fill="#110638" d="M12.664,16.219h-2.212c-0.276,0-0.5-0.224-0.5-0.5v-2.853l-1.323,1.636c-0.189,0.234-0.588,0.234-0.777,0l-1.323-1.636v2.853c0,0.276-0.224,0.5-0.5,0.5H3.816c-0.276,0-0.5-0.224-0.5-0.5V8.28c0-0.276,0.224-0.5,0.5-0.5h2.212c0.151,0,0.294,0.068,0.389,0.186l1.823,2.255l1.823-2.255c0.095-0.117,0.237-0.186,0.389-0.186h2.212c0.276,0,0.5,0.224,0.5,0.5v7.438C13.164,15.995,12.94,16.219,12.664,16.219z M10.952,15.219h1.212V8.78H10.69l-2.062,2.55c-0.189,0.234-0.588,0.234-0.777,0L5.79,8.78H4.316v6.438h1.212v-3.766c0-0.212,0.134-0.4,0.333-0.472c0.199-0.069,0.423-0.008,0.556,0.157l1.823,2.254l1.823-2.254c0.133-0.164,0.356-0.225,0.556-0.157c0.199,0.071,0.333,0.26,0.333,0.472V15.219z"></path>
</svg>
